<?xml version="1.0" encoding="utf-8"?>
<!-- Generator: Adobe Illustrator 16.0.0, SVG Export Plug-In . SVG Version: 6.00 Build 0)  -->
<!DOCTYPE svg PUBLIC "-//W3C//DTD SVG 1.1//EN" "http://www.w3.org/Graphics/SVG/1.1/DTD/svg11.dtd">
<svg version="1.1" id="Layer_1" xmlns="http://www.w3.org/2000/svg" xmlns:xlink="http://www.w3.org/1999/xlink" x="0px" y="0px"
	 width="130px" height="15px" viewBox="0 0 130 15" enable-background="new 0 0 130 15" xml:space="preserve">
<g>
	<g>
		<path fill="#BABABA" d="M72.641,1c3.584,0,6.5,2.916,6.5,6.5s-2.916,6.5-6.5,6.5s-6.5-2.916-6.5-6.5S69.057,1,72.641,1 M72.641,0
			c-4.142,0-7.5,3.358-7.5,7.5c0,4.143,3.358,7.5,7.5,7.5c4.143,0,7.5-3.357,7.5-7.5C80.141,3.358,76.782,0,72.641,0L72.641,0z"/>
	</g>
	<path fill="#969595" d="M88.672,1c3.584,0,6.5,2.916,6.5,6.5s-2.916,6.5-6.5,6.5s-6.5-2.916-6.5-6.5S85.088,1,88.672,1 M88.672,0
		c-4.143,0-7.5,3.358-7.5,7.5c0,4.143,3.357,7.5,7.5,7.5s7.5-3.357,7.5-7.5C96.172,3.358,92.813,0,88.672,0L88.672,0z M88.672,4.021
		c1.922,0,3.479,1.558,3.479,3.479c0,1.922-1.557,3.479-3.479,3.479S85.193,9.422,85.193,7.5C85.193,5.579,86.75,4.021,88.672,4.021
		z"/>
	<g>
		<path fill="#DDDDDD" d="M104.609,1c3.584,0,6.5,2.916,6.5,6.5s-2.916,6.5-6.5,6.5s-6.5-2.916-6.5-6.5S101.025,1,104.609,1
			 M104.609,0c-4.143,0-7.5,3.358-7.5,7.5c0,4.143,3.357,7.5,7.5,7.5c4.142,0,7.5-3.357,7.5-7.5C112.109,3.358,108.751,0,104.609,0
			L104.609,0z"/>
	</g>
	<path fill="#DDDDDD" d="M120.641,1c3.584,0,6.5,2.916,6.5,6.5s-2.916,6.5-6.5,6.5s-6.5-2.916-6.5-6.5S117.057,1,120.641,1
		 M120.641,0c-4.142,0-7.5,3.358-7.5,7.5c0,4.143,3.358,7.5,7.5,7.5c4.143,0,7.5-3.357,7.5-7.5C128.141,3.358,124.782,0,120.641,0
		L120.641,0z M120.641,4.021c1.922,0,3.479,1.558,3.479,3.479c0,1.922-1.558,3.479-3.479,3.479c-1.921,0-3.479-1.557-3.479-3.479
		C117.162,5.579,118.72,4.021,120.641,4.021z"/>
	<g>
		<path fill="#BABABA" d="M11.289,1C12.784,1,14,2.216,14,3.711v7.578C14,12.784,12.784,14,11.289,14H3.711
			C2.216,14,1,12.784,1,11.289V3.711C1,2.216,2.216,1,3.711,1H11.289 M11.289,0H3.711C1.662,0,0,1.662,0,3.711v7.578
			C0,13.338,1.662,15,3.711,15h7.577C13.338,15,15,13.338,15,11.289V3.711C15,1.662,13.338,0,11.289,0L11.289,0z"/>
	</g>
	<path fill="#969595" d="M27.32,1c1.495,0,2.711,1.216,2.711,2.711v7.578c0,1.495-1.216,2.711-2.711,2.711h-7.577
		c-1.495,0-2.711-1.216-2.711-2.711V3.711C17.031,2.216,18.248,1,19.743,1H27.32 M27.32,0h-7.577c-2.05,0-3.711,1.662-3.711,3.711
		v7.578c0,2.049,1.662,3.711,3.711,3.711h7.577c2.05,0,3.711-1.662,3.711-3.711V3.711C31.031,1.662,29.37,0,27.32,0L27.32,0z
		 M19.292,7.467l1.037-1.009l2.146,2.124l4.379-4.199l1.005,1.029l-5.155,5.205L19.292,7.467z"/>
	<g>
		<path fill="#DDDDDD" d="M43.757,1c1.495,0,2.711,1.216,2.711,2.711v7.578c0,1.495-1.216,2.711-2.711,2.711H36.18
			c-1.495,0-2.711-1.216-2.711-2.711V3.711C33.469,2.216,34.685,1,36.18,1H43.757 M43.757,0H36.18c-2.05,0-3.711,1.662-3.711,3.711
			v7.578c0,2.049,1.662,3.711,3.711,3.711h7.577c2.05,0,3.711-1.662,3.711-3.711V3.711C47.469,1.662,45.807,0,43.757,0L43.757,0z"/>
	</g>
	<path fill="#DDDDDD" d="M59.789,1C61.284,1,62.5,2.216,62.5,3.711v7.578c0,1.495-1.216,2.711-2.711,2.711h-7.577
		c-1.495,0-2.711-1.216-2.711-2.711V3.711C49.5,2.216,50.716,1,52.211,1H59.789 M59.789,0h-7.577C50.162,0,48.5,1.662,48.5,3.711
		v7.578c0,2.049,1.662,3.711,3.711,3.711h7.577c2.05,0,3.711-1.662,3.711-3.711V3.711C63.5,1.662,61.838,0,59.789,0L59.789,0z
		 M51.76,7.467l1.038-1.009l2.145,2.124l4.38-4.199l1.005,1.029l-5.155,5.205L51.76,7.467z"/>
</g>
</svg>
